<svg width="45" height="54" viewBox="0 0 45 54" fill="none" xmlns="http://www.w3.org/2000/svg">
<g filter="url(#filter0_d_95_30)">
<path d="M25.3635 16.8263C21.1234 16.8377 16.8993 17.5128 12.9001 18.8855C11.3056 19.4324 9.27699 20.0028 8.1609 21.2874C6.86792 22.7767 7.23904 24.7669 7.35018 26.518C7.57687 30.1464 6.5765 33.7659 6.04402 37.3443C5.52133 40.8575 5.12168 45.0688 6.64007 48.4076C7.5201 50.345 9.14173 49.9557 11.0085 49.6864C13.1986 49.3679 15.4247 49.3104 17.6244 49.5067C21.9926 49.8978 26.1483 50.9208 30.5649 50.1186C32.2578 49.8105 34.3589 49.4105 35.5039 48.0775C36.6492 46.7467 36.69 44.8597 36.8472 43.2411C37.2574 39.0248 37.5407 34.7987 37.6799 30.5707C37.7592 28.1877 37.7961 25.8021 37.7868 23.4186C37.7812 21.5835 38.0032 18.9094 35.9327 17.9368C35.1755 17.581 34.2261 17.5581 33.3989 17.4891C32.1769 17.3861 30.9534 17.2915 29.7288 17.2094C27.1365 17.0288 24.538 16.9048 21.9388 16.8224C20.9089 16.7899 21.0979 20.2658 22.3365 20.305C26.1633 20.4275 29.985 20.6441 33.7985 20.9694C34.4764 21.0265 35.1024 21.1983 35.759 21.2906C35.889 21.3083 36.0089 21.4142 36.124 21.4644C36.1193 21.3858 36.1148 21.3093 36.1102 21.2307C36.1111 21.3679 36.1118 21.5029 36.115 21.6398C36.1124 22.1161 36.1209 22.5935 36.1227 23.0694C36.1249 24.8403 36.1028 26.6113 36.0563 28.3824C35.9622 31.987 35.7729 35.5916 35.4699 39.1874C35.3373 40.7581 35.3577 42.4588 34.9677 43.998C34.5566 45.6243 32.714 46.0682 31.2017 46.4167C27.548 47.2602 23.9932 46.933 20.3392 46.4066C18.4585 46.1367 16.5786 45.9021 14.6706 45.9027C12.8269 45.9039 11.054 46.1588 9.23798 46.4258C8.56483 46.5242 7.89294 46.637 7.66132 45.9629C7.41492 45.2465 7.35316 44.4142 7.31401 43.663C7.23527 42.2064 7.39028 40.7397 7.59377 39.2959C8.04502 36.1299 8.76766 33.0046 8.98429 29.8133C9.04396 28.9267 9.05512 28.0422 9.01503 27.1539C8.98261 26.4292 8.66178 25.368 8.96975 24.6883C9.26268 24.039 10.1368 23.632 10.771 23.3416C11.7094 22.9103 12.6992 22.5597 13.6845 22.2344C17.572 20.9505 21.6581 20.3186 25.7607 20.3048C26.8211 20.3055 26.5827 16.8215 25.3635 16.8263Z" fill="#8A8484"/>
<path d="M24.2337 39.999C24.2497 39.7347 24.2682 39.4679 24.2921 39.2029C24.2359 39.7558 24.2374 39.7733 24.2991 39.2531C24.3585 38.8856 24.4022 38.5194 24.4642 38.1516C24.546 37.6827 24.6382 37.2128 24.7464 36.746C24.8185 36.4348 25.0155 35.7282 24.8107 36.4355C25.2481 34.9213 25.8085 33.4384 26.4463 31.973C27.9299 28.5533 29.4384 25.5667 31.3396 22.3469C32.874 19.747 34.5454 17.188 36.481 14.7805C36.8441 14.329 37.2155 13.8833 37.6035 13.4472C37.7748 13.2533 37.9595 13.0648 38.1308 12.8708C38.5488 12.3902 37.6509 13.3017 38.2197 12.7813C38.7595 12.2878 39.2779 11.7895 39.9316 11.4031C42.8672 9.66816 40.6127 0.243296 37.4808 2.09484C35.6514 3.17623 34.257 4.95751 33.0186 6.48874C30.8787 9.13064 29.0609 11.9587 27.4034 14.8257C23.153 22.1794 19.594 29.7554 19.0433 37.9233C18.9625 39.1212 19.2454 40.5613 19.74 41.6736C20.0395 42.3478 20.6381 43.4532 21.5175 43.7629C23.7531 44.5461 24.1674 40.9747 24.2337 39.999Z" fill="#8A8484"/>
<path d="M4.66097 29.8355C8.27407 31.4527 11.5294 33.4325 14.3564 35.9249C15.597 37.0183 16.7267 38.1877 17.8052 39.3991C18.0788 39.7176 18.0873 39.7257 17.828 39.4214C17.9625 39.5842 18.097 39.747 18.2291 39.9122C18.4256 40.1557 18.6196 40.4016 18.8113 40.65C19.3097 41.298 19.7882 41.9565 20.2541 42.6205C20.6216 43.1452 21.3332 43.9578 22.2137 43.8631C23.0761 43.77 23.6258 42.8227 23.8381 42.2319C24.6049 40.0901 24.3688 37.212 23.0277 35.2988C18.5624 28.9308 12.6899 23.7199 4.90583 20.234C2.79462 19.2897 2.18996 23.0456 2.18424 23.9961C2.17753 25.8018 2.50615 28.8707 4.66097 29.8355Z" fill="#8A8484"/>
</g>
<defs>
<filter id="filter0_d_95_30" x="0.184082" y="0.85498" width="43.1133" height="52.5627" filterUnits="userSpaceOnUse" color-interpolation-filters="sRGB">
<feFlood flood-opacity="0" result="BackgroundImageFix"/>
<feColorMatrix in="SourceAlpha" type="matrix" values="0 0 0 0 0 0 0 0 0 0 0 0 0 0 0 0 0 0 127 0" result="hardAlpha"/>
<feOffset dy="1"/>
<feGaussianBlur stdDeviation="1"/>
<feComposite in2="hardAlpha" operator="out"/>
<feColorMatrix type="matrix" values="0 0 0 0 0 0 0 0 0 0 0 0 0 0 0 0 0 0 0.25 0"/>
<feBlend mode="normal" in2="BackgroundImageFix" result="effect1_dropShadow_95_30"/>
<feBlend mode="normal" in="SourceGraphic" in2="effect1_dropShadow_95_30" result="shape"/>
</filter>
</defs>
</svg>
