<svg width="39" height="40" viewBox="0 0 39 40" fill="none" xmlns="http://www.w3.org/2000/svg">
<g filter="url(#filter0_d_95_13)">
<path d="M23.1872 2.27165C18.9471 2.28297 14.7231 2.95811 10.7239 4.33077C9.1293 4.87773 7.10073 5.4481 5.98463 6.73274C4.69165 8.22204 5.06277 10.2122 5.17391 11.9633C5.4006 15.5918 4.40023 19.2112 3.86775 22.7896C3.34506 26.3028 2.94542 30.5141 4.4638 33.8529C5.34383 35.7903 6.96546 35.401 8.83223 35.1317C11.0223 34.8133 13.2485 34.7557 15.4481 34.952C19.8164 35.3431 23.9721 36.3661 28.3886 35.564C30.0816 35.2558 32.1826 34.8558 33.3277 33.5229C34.4729 32.192 34.5137 30.305 34.6709 28.6864C35.0812 24.4701 35.3644 20.244 35.5036 16.016C35.5829 13.633 35.6199 11.2474 35.6106 8.86386C35.6049 7.02877 35.827 4.3547 33.7564 3.38212C32.9992 3.02636 32.0499 3.0034 31.2226 2.93442C30.0006 2.83137 28.7771 2.73677 27.5525 2.65473C24.9602 2.47408 22.3618 2.3501 19.7626 2.26776C18.7327 2.23521 18.9217 5.71108 20.1602 5.75031C23.987 5.87285 27.8087 6.08938 31.6223 6.41472C32.3002 6.47182 32.9261 6.64365 33.5828 6.73587C33.7127 6.75361 33.8326 6.85953 33.9477 6.90975C33.943 6.83116 33.9386 6.75464 33.9339 6.67605C33.9348 6.81317 33.9356 6.94823 33.9387 7.08515C33.9361 7.56143 33.9447 8.03881 33.9464 8.5147C33.9487 10.2856 33.9265 12.0567 33.88 13.8277C33.7859 17.4323 33.5966 21.0369 33.2936 24.6327C33.161 26.2034 33.1814 27.9042 32.7915 29.4433C32.3804 31.0696 30.5377 31.5135 29.0254 31.862C25.3717 32.7055 21.817 32.3783 18.1629 31.852C16.2822 31.582 14.4023 31.3474 12.4943 31.348C10.6506 31.3492 8.87776 31.6041 7.06171 31.8711C6.38856 31.9695 5.71667 32.0823 5.48505 31.4083C5.23865 30.6918 5.17689 29.8595 5.13774 29.1083C5.059 27.6517 5.21401 26.1851 5.4175 24.7412C5.86875 21.5752 6.59139 18.4499 6.80802 15.2587C6.86769 14.372 6.87885 13.4876 6.83876 12.5993C6.80634 11.8745 6.48551 10.8133 6.79348 10.1336C7.08641 9.48432 7.96055 9.07731 8.59476 8.78692C9.53318 8.35558 10.5229 8.00498 11.5082 7.67971C15.3957 6.39582 19.4819 5.76393 23.5845 5.75008C24.6448 5.75086 24.4064 2.26684 23.1872 2.27165Z" fill="#8A8484"/>
<path d="M23.1872 2.27165C18.9471 2.28297 14.7231 2.95811 10.7239 4.33077C9.1293 4.87773 7.10073 5.4481 5.98463 6.73274C4.69165 8.22204 5.06277 10.2122 5.17391 11.9633C5.4006 15.5918 4.40023 19.2112 3.86775 22.7896C3.34506 26.3028 2.94542 30.5141 4.4638 33.8529C5.34383 35.7903 6.96546 35.401 8.83223 35.1317C11.0223 34.8133 13.2485 34.7557 15.4481 34.952C19.8164 35.3431 23.9721 36.3661 28.3886 35.564C30.0816 35.2558 32.1826 34.8558 33.3277 33.5229C34.4729 32.192 34.5137 30.305 34.6709 28.6864C35.0812 24.4701 35.3644 20.244 35.5036 16.016C35.5829 13.633 35.6199 11.2474 35.6106 8.86386C35.6049 7.02877 35.827 4.3547 33.7564 3.38212C32.9992 3.02636 32.0499 3.0034 31.2226 2.93442C30.0006 2.83137 28.7771 2.73677 27.5525 2.65473C24.9602 2.47408 22.3618 2.3501 19.7626 2.26776C18.7327 2.23521 18.9217 5.71108 20.1602 5.75031C23.987 5.87285 27.8087 6.08938 31.6223 6.41472C32.3002 6.47182 32.9261 6.64365 33.5828 6.73587C33.7127 6.75361 33.8326 6.85953 33.9477 6.90975C33.943 6.83116 33.9386 6.75464 33.9339 6.67605C33.9348 6.81317 33.9356 6.94823 33.9387 7.08515C33.9361 7.56143 33.9447 8.03881 33.9464 8.5147C33.9487 10.2856 33.9265 12.0567 33.88 13.8277C33.7859 17.4323 33.5966 21.0369 33.2936 24.6327C33.161 26.2034 33.1814 27.9042 32.7915 29.4433C32.3804 31.0696 30.5377 31.5135 29.0254 31.862C25.3717 32.7055 21.817 32.3783 18.1629 31.852C16.2822 31.582 14.4023 31.3474 12.4943 31.348C10.6506 31.3492 8.87776 31.6041 7.06171 31.8711C6.38856 31.9695 5.71667 32.0823 5.48505 31.4083C5.23865 30.6918 5.17689 29.8595 5.13774 29.1083C5.059 27.6517 5.21401 26.1851 5.4175 24.7412C5.86875 21.5752 6.59139 18.4499 6.80802 15.2587C6.86769 14.372 6.87885 13.4876 6.83876 12.5993C6.80634 11.8745 6.48551 10.8133 6.79348 10.1336C7.08641 9.48432 7.96055 9.07731 8.59476 8.78692C9.53318 8.35558 10.5229 8.00498 11.5082 7.67971C15.3957 6.39582 19.4819 5.76393 23.5845 5.75008C24.6448 5.75086 24.4064 2.26684 23.1872 2.27165Z" stroke="#8A8484"/>
</g>
<defs>
<filter id="filter0_d_95_13" x="0.898438" y="0.767578" width="37.217" height="38.5955" filterUnits="userSpaceOnUse" color-interpolation-filters="sRGB">
<feFlood flood-opacity="0" result="BackgroundImageFix"/>
<feColorMatrix in="SourceAlpha" type="matrix" values="0 0 0 0 0 0 0 0 0 0 0 0 0 0 0 0 0 0 127 0" result="hardAlpha"/>
<feOffset dy="1"/>
<feGaussianBlur stdDeviation="1"/>
<feComposite in2="hardAlpha" operator="out"/>
<feColorMatrix type="matrix" values="0 0 0 0 0 0 0 0 0 0 0 0 0 0 0 0 0 0 0.25 0"/>
<feBlend mode="normal" in2="BackgroundImageFix" result="effect1_dropShadow_95_13"/>
<feBlend mode="normal" in="SourceGraphic" in2="effect1_dropShadow_95_13" result="shape"/>
</filter>
</defs>
</svg>
