<svg width="38" height="38" viewBox="0 0 38 38" fill="none" xmlns="http://www.w3.org/2000/svg">
<g filter="url(#filter0_di_167_422)">
<path d="M9.13509 6.39007C7.60997 6.87859 6.68691 7.69992 6.46405 9.21433C6.35761 9.94253 6.42746 10.6768 6.38588 11.4081C6.34264 12.176 6.22622 12.9393 6.06822 13.6934C5.44453 16.6704 4.3169 19.5649 4.07075 22.6059C3.95267 24.0714 3.92939 25.7156 4.43 27.1278C5.01876 28.7872 6.5971 28.3765 8.11225 28.3246C9.94173 28.262 11.7562 28.4498 13.5392 28.8177C15.2855 29.1795 17.0069 29.6681 18.7881 29.8742C20.6908 30.094 22.7647 30.0528 24.6125 29.5337C26.3788 29.0391 26.9792 27.7231 27.2935 26.1614C27.3983 25.6454 27.4598 24.8164 27.0258 24.3981C26.61 23.9982 26.2757 24.4943 26.1975 24.8806C26.101 25.3584 26.0279 25.8927 25.6869 26.2851C25.2911 26.74 24.6441 26.94 24.0504 27.0697C22.5768 27.3903 21.0201 27.4667 19.5132 27.3613C16.4913 27.1522 13.6456 26.0606 10.6286 25.8057C9.15172 25.6805 7.73471 25.8347 6.26447 25.8545C5.41459 25.8652 5.35638 25.595 5.2832 24.8867C5.22832 24.3478 5.22998 23.8028 5.27489 23.2639C5.47613 20.7907 6.34097 18.4107 6.92974 16.0032C7.26736 14.6232 7.53513 13.2202 7.60498 11.805C7.63159 11.2539 7.45031 10.3547 7.73803 9.86009C8.05736 9.31203 8.93718 9.06167 9.52926 8.87084C10.2794 8.63269 10.0764 6.0878 9.13509 6.39007Z" fill="#6B6B6B"/>
<path d="M25.6298 0.112516C21.8344 -0.221815 17.9643 0.191901 14.3535 1.31397C13.5802 1.55365 12.7619 1.86966 12.3527 2.51848C11.9819 3.1047 12.0317 3.82832 12.0367 4.50767C12.0733 9.64782 8.8418 14.6414 9.84136 19.6991C9.90124 19.9999 9.98439 20.3159 10.2189 20.5327C10.6114 20.896 11.2534 20.8502 11.8089 20.7983C13.6317 20.6288 15.4812 20.6899 17.2857 20.98C19.4661 21.3296 21.5783 22.0104 23.7737 22.2669C25.4635 22.4638 27.1882 22.4058 28.858 22.0959C29.5998 21.9585 30.3698 21.7509 30.892 21.2471C31.4492 20.7097 31.6238 19.9357 31.7669 19.206C32.8196 13.872 33.5598 8.48453 33.9822 3.07722C34.0072 2.749 34.0288 2.40551 33.8841 2.10476C33.5963 1.51243 32.803 1.31702 32.1078 1.19795C29.1075 0.675841 28.6601 0.46364 25.6298 0.112516Z" fill="#6B6B6B"/>
</g>
<defs>
<filter id="filter0_di_167_422" x="0" y="0" width="38" height="38" filterUnits="userSpaceOnUse" color-interpolation-filters="sRGB">
<feFlood flood-opacity="0" result="BackgroundImageFix"/>
<feColorMatrix in="SourceAlpha" type="matrix" values="0 0 0 0 0 0 0 0 0 0 0 0 0 0 0 0 0 0 127 0" result="hardAlpha"/>
<feOffset dy="4"/>
<feGaussianBlur stdDeviation="2"/>
<feComposite in2="hardAlpha" operator="out"/>
<feColorMatrix type="matrix" values="0 0 0 0 0 0 0 0 0 0 0 0 0 0 0 0 0 0 0.25 0"/>
<feBlend mode="normal" in2="BackgroundImageFix" result="effect1_dropShadow_167_422"/>
<feBlend mode="normal" in="SourceGraphic" in2="effect1_dropShadow_167_422" result="shape"/>
<feColorMatrix in="SourceAlpha" type="matrix" values="0 0 0 0 0 0 0 0 0 0 0 0 0 0 0 0 0 0 127 0" result="hardAlpha"/>
<feOffset dy="2"/>
<feGaussianBlur stdDeviation="1"/>
<feComposite in2="hardAlpha" operator="arithmetic" k2="-1" k3="1"/>
<feColorMatrix type="matrix" values="0 0 0 0 0 0 0 0 0 0 0 0 0 0 0 0 0 0 0.25 0"/>
<feBlend mode="normal" in2="shape" result="effect2_innerShadow_167_422"/>
</filter>
</defs>
</svg>
