<svg width="205" height="64" viewBox="0 0 205 64" fill="none" xmlns="http://www.w3.org/2000/svg">
<g filter="url(#filter0_d_167_428)">
<path d="M75.0945 28.45C75.0945 29.4098 74.8451 30.2834 74.3463 31.0463C73.8475 31.8092 73.1118 32.4121 72.1391 32.855C71.1665 33.2857 70.0192 33.5072 68.6974 33.5072C67.1013 33.5072 65.7919 33.2119 64.7569 32.6213C64.0212 32.1906 63.4226 31.6246 62.9612 30.9109C62.4998 30.1973 62.2754 29.5082 62.2754 28.8315C62.2754 28.4377 62.4126 28.1055 62.6869 27.8225C62.9612 27.5395 63.3104 27.4042 63.7344 27.4042C64.0835 27.4042 64.3703 27.5149 64.6073 27.7241C64.8442 27.9333 65.0437 28.2655 65.2183 28.6961C65.4178 29.2006 65.6423 29.6313 65.8792 29.9635C66.1161 30.2957 66.4528 30.5787 66.8893 30.8002C67.3257 31.0217 67.8869 31.1324 68.5976 31.1324C69.5703 31.1324 70.3559 30.9109 70.9545 30.468C71.5655 30.025 71.8648 29.4713 71.8648 28.7946C71.8648 28.2655 71.7027 27.8348 71.3784 27.5026C71.0542 27.1704 70.6302 26.9243 70.1065 26.752C69.5828 26.5798 68.8969 26.3952 68.024 26.1983C66.8643 25.9276 65.8917 25.62 65.1061 25.2632C64.3205 24.9063 63.7094 24.4142 63.248 23.7989C62.7867 23.1837 62.5622 22.4085 62.5622 21.4857C62.5622 20.6121 62.7991 19.8246 63.2855 19.1478C63.7718 18.4711 64.4701 17.942 65.3929 17.5729C66.3156 17.2037 67.3881 17.0192 68.6351 17.0192C69.6202 17.0192 70.4806 17.1422 71.2039 17.3883C71.9271 17.6344 72.5257 17.9543 72.9995 18.3604C73.4734 18.7664 73.8225 19.1848 74.047 19.6277C74.2715 20.0707 74.3837 20.5013 74.3837 20.9197C74.3837 21.3011 74.2465 21.6457 73.9722 21.9533C73.6978 22.2609 73.3487 22.4208 72.9372 22.4208C72.5631 22.4208 72.2763 22.3224 72.0892 22.1378C71.8897 21.9533 71.6777 21.6457 71.4533 21.2273C71.154 20.6244 70.8048 20.1568 70.3933 19.8246C69.9818 19.4924 69.3209 19.3201 68.4106 19.3201C67.5626 19.3201 66.8893 19.5047 66.3655 19.8738C65.8543 20.2306 65.6049 20.6736 65.6049 21.1904C65.6049 21.5103 65.6921 21.781 65.8667 22.0148C66.0413 22.2486 66.2907 22.4454 66.59 22.6177C66.9017 22.79 67.2135 22.913 67.5252 23.0115C67.837 23.1099 68.3607 23.2452 69.084 23.4298C69.9943 23.639 70.8173 23.8728 71.553 24.1189C72.2887 24.3773 72.9247 24.6849 73.436 25.0417C73.9597 25.3985 74.3588 25.8661 74.6456 26.4198C74.9448 26.9612 75.0945 27.6502 75.0945 28.45Z" fill="#6B6B6B" stroke="#6B6B6B" stroke-miterlimit="10"/>
<path d="M82.5139 18.9879V23.5529H89.5719V18.9879C89.5719 18.3358 89.7215 17.8436 90.0208 17.5237C90.3201 17.1915 90.7066 17.0315 91.193 17.0315C91.6793 17.0315 92.0783 17.1915 92.3901 17.5114C92.6894 17.8313 92.8515 18.3235 92.8515 18.9879V31.5385C92.8515 32.2029 92.7018 32.6951 92.3901 33.015C92.0783 33.335 91.6918 33.5072 91.2054 33.5072C90.7191 33.5072 90.3201 33.3473 90.0333 33.015C89.734 32.6828 89.5968 32.1906 89.5968 31.5385V26.186H82.5388V31.5385C82.5388 32.2029 82.3892 32.6951 82.0774 33.015C81.7657 33.335 81.3791 33.5072 80.8928 33.5072C80.4065 33.5072 80.0074 33.3473 79.7206 33.015C79.4213 32.6828 79.2842 32.1906 79.2842 31.5385V18.9879C79.2842 18.3358 79.4338 17.8436 79.7206 17.5237C80.0074 17.1915 80.4065 17.0315 80.9053 17.0315C81.3916 17.0315 81.7906 17.1915 82.1024 17.5114C82.3643 17.8313 82.5139 18.3235 82.5139 18.9879Z" fill="#6B6B6B" stroke="#6B6B6B" stroke-miterlimit="10"/>
<path d="M108.039 31.4278L107.266 29.4344H100.707L99.934 31.477C99.6348 32.2768 99.3729 32.8059 99.1609 33.0889C98.9489 33.3719 98.5998 33.5072 98.1134 33.5072C97.7019 33.5072 97.3403 33.3596 97.0285 33.0643C96.7168 32.7689 96.5547 32.4367 96.5547 32.0553C96.5547 31.8338 96.5921 31.6123 96.6669 31.3785C96.7417 31.1447 96.8664 30.8248 97.0285 30.4065L101.156 20.0584C101.268 19.7631 101.418 19.4063 101.58 18.9879C101.742 18.5696 101.917 18.225 102.104 17.9543C102.291 17.6836 102.54 17.4498 102.84 17.2899C103.139 17.1176 103.525 17.0315 103.974 17.0315C104.423 17.0315 104.81 17.1176 105.109 17.2899C105.408 17.4622 105.658 17.6836 105.845 17.942C106.032 18.2127 106.194 18.4957 106.319 18.8033C106.443 19.111 106.605 19.517 106.805 20.0338L111.02 30.308C111.344 31.0955 111.519 31.6615 111.519 32.0184C111.519 32.3875 111.357 32.732 111.045 33.0396C110.733 33.3473 110.359 33.5072 109.91 33.5072C109.648 33.5072 109.436 33.458 109.249 33.3719C109.062 33.2857 108.912 33.1627 108.788 33.0027C108.663 32.8428 108.526 32.609 108.389 32.2891C108.264 31.9568 108.152 31.6738 108.039 31.4278ZM101.568 26.9981H106.393L103.962 20.4275L101.568 26.9981Z" fill="#6B6B6B" stroke="#6B6B6B" stroke-miterlimit="10"/>
<path d="M119.687 26.4198H118.54V31.5385C118.54 32.2152 118.39 32.7074 118.091 33.0273C117.792 33.3472 117.393 33.5072 116.919 33.5072C116.395 33.5072 115.996 33.3349 115.709 33.0027C115.422 32.6705 115.285 32.1783 115.285 31.5385V19.2832C115.285 18.5819 115.447 18.0897 115.759 17.7698C116.071 17.4621 116.582 17.3022 117.293 17.3022H122.617C123.353 17.3022 123.977 17.3391 124.5 17.4006C125.024 17.4621 125.486 17.5852 125.91 17.7698C126.421 17.9789 126.87 18.2865 127.256 18.668C127.643 19.0617 127.942 19.517 128.142 20.0338C128.341 20.5506 128.441 21.1043 128.441 21.6826C128.441 22.8638 128.104 23.8236 127.418 24.5249C126.733 25.2263 125.71 25.7431 124.326 26.0384C124.899 26.346 125.461 26.7889 125.984 27.3796C126.508 27.9702 126.982 28.61 127.393 29.2745C127.805 29.9389 128.129 30.5541 128.366 31.0832C128.603 31.6123 128.715 31.9938 128.715 32.2029C128.715 32.4121 128.653 32.6213 128.516 32.8305C128.379 33.0396 128.192 33.1996 127.955 33.3226C127.718 33.4457 127.443 33.5072 127.144 33.5072C126.782 33.5072 126.471 33.4211 126.221 33.2488C125.972 33.0765 125.76 32.8674 125.573 32.5967C125.398 32.3383 125.149 31.9568 124.837 31.4401L123.528 29.2868C123.054 28.4993 122.642 27.8964 122.268 27.478C121.894 27.0597 121.52 26.7766 121.134 26.629C120.747 26.4936 120.261 26.4198 119.687 26.4198ZM121.558 19.7262H118.54V24.1066H121.47C122.256 24.1066 122.917 24.045 123.453 23.9097C123.989 23.7743 124.401 23.5529 124.675 23.2206C124.962 22.9007 125.099 22.4578 125.099 21.8918C125.099 21.4488 124.987 21.0674 124.762 20.7228C124.538 20.3906 124.214 20.1322 123.815 19.9723C123.428 19.8 122.68 19.7262 121.558 19.7262Z" fill="#6B6B6B" stroke="#6B6B6B" stroke-miterlimit="10"/>
<path d="M143.504 19.7877H136.134V23.7005H142.918C143.417 23.7005 143.791 23.8112 144.04 24.0327C144.29 24.2542 144.414 24.5495 144.414 24.9063C144.414 25.2632 144.29 25.5585 144.053 25.7923C143.816 26.0137 143.442 26.1368 142.93 26.1368H136.147V30.6648H143.766C144.277 30.6648 144.664 30.7879 144.926 31.0217C145.187 31.2554 145.312 31.5754 145.312 31.9568C145.312 32.3382 145.187 32.6335 144.926 32.8796C144.664 33.1257 144.277 33.2365 143.766 33.2365H134.875C134.164 33.2365 133.653 33.0765 133.341 32.7689C133.029 32.4613 132.867 31.9568 132.867 31.2554V19.2832C132.867 18.8156 132.942 18.4465 133.079 18.1512C133.216 17.8559 133.441 17.6467 133.74 17.5113C134.039 17.376 134.413 17.3145 134.875 17.3145H143.504C144.028 17.3145 144.414 17.4252 144.664 17.659C144.913 17.8928 145.038 18.1881 145.038 18.5572C145.038 18.9386 144.913 19.234 144.664 19.4677C144.414 19.7015 144.028 19.7877 143.504 19.7877Z" fill="#6B6B6B" stroke="#6B6B6B" stroke-miterlimit="10"/>
<path d="M151.286 17.3022H155.551C156.661 17.3022 157.608 17.4006 158.406 17.6098C159.204 17.819 159.915 18.1881 160.564 18.7541C162.247 20.1691 163.083 22.3347 163.083 25.2263C163.083 26.186 162.995 27.0596 162.833 27.8471C162.659 28.6346 162.409 29.3483 162.048 29.9881C161.698 30.628 161.249 31.194 160.688 31.6861C160.252 32.0676 159.778 32.3752 159.267 32.609C158.755 32.8428 158.207 33.0027 157.608 33.1012C157.022 33.1996 156.349 33.2488 155.613 33.2488H151.348C150.75 33.2488 150.301 33.1627 150.002 32.9781C149.702 32.8058 149.503 32.5475 149.415 32.2275C149.328 31.9076 149.278 31.4893 149.278 30.9725V19.2955C149.278 18.5942 149.44 18.102 149.752 17.7821C150.076 17.4498 150.588 17.3022 151.286 17.3022ZM152.558 19.8492V30.6649H155.039C155.588 30.6649 156.012 30.6526 156.311 30.6156C156.623 30.591 156.935 30.5172 157.272 30.3942C157.596 30.2834 157.883 30.1112 158.132 29.902C159.229 28.9915 159.778 27.4165 159.778 25.1894C159.778 23.6144 159.541 22.4455 159.055 21.658C158.568 20.8705 157.982 20.3783 157.272 20.1691C156.561 19.96 155.713 19.8492 154.715 19.8492H152.558Z" fill="#6B6B6B" stroke="#6B6B6B" stroke-miterlimit="10"/>
<path d="M76.578 50.4505C76.578 50.955 76.4533 51.5087 76.2039 52.0993C75.9545 52.6899 75.5555 53.2683 75.0068 53.8343C74.4581 54.4003 73.7723 54.8678 72.9243 55.2247C72.0764 55.5815 71.0913 55.7538 69.969 55.7538C69.121 55.7538 68.3479 55.6799 67.6496 55.52C66.9512 55.36 66.3153 55.1139 65.7541 54.7817C65.1805 54.4495 64.6568 54.0065 64.1829 53.4528C63.7589 52.9483 63.3973 52.3946 63.098 51.7794C62.7988 51.1642 62.5743 50.4997 62.4247 49.7984C62.275 49.097 62.2002 48.3465 62.2002 47.559C62.2002 46.2793 62.3872 45.1227 62.7613 44.1137C63.1354 43.1047 63.6841 42.2311 64.3824 41.5052C65.0932 40.7792 65.9162 40.2378 66.8639 39.8564C67.8117 39.4749 68.8217 39.2903 69.8941 39.2903C71.2035 39.2903 72.3632 39.5487 73.3857 40.0655C74.4083 40.5823 75.1939 41.2098 75.7301 41.9727C76.2788 42.7356 76.5406 43.4493 76.5406 44.1137C76.5406 44.4828 76.4035 44.8151 76.1416 45.0858C75.8797 45.3565 75.5555 45.5041 75.1814 45.5041C74.7574 45.5041 74.4457 45.4057 74.2462 45.2088C74.0342 45.0119 73.8097 44.6797 73.5478 44.1998C73.1239 43.4124 72.6251 42.8217 72.039 42.428C71.4654 42.0342 70.7546 41.8374 69.9066 41.8374C68.5599 41.8374 67.4874 42.3419 66.7018 43.3508C65.9038 44.3598 65.5047 45.7871 65.5047 47.6451C65.5047 48.8879 65.6793 49.9091 66.0285 50.7335C66.3776 51.5579 66.8764 52.1732 67.5249 52.5792C68.1733 52.9852 68.9215 53.1944 69.7944 53.1944C70.7296 53.1944 71.5277 52.9606 72.1761 52.5054C72.8246 52.0501 73.3109 51.3734 73.6476 50.4751C73.7848 50.0568 73.9593 49.7123 74.1713 49.4539C74.3709 49.1955 74.7075 49.0601 75.1565 49.0601C75.543 49.0601 75.8797 49.1955 76.1541 49.4662C76.4409 49.7246 76.578 50.0568 76.578 50.4505Z" fill="#6B6B6B" stroke="#6B6B6B" stroke-miterlimit="10"/>
<path d="M83.9485 41.2344V45.7994H91.0064V41.2344C91.0064 40.5823 91.1561 40.0901 91.4554 39.7702C91.7546 39.438 92.1412 39.278 92.6275 39.278C93.1139 39.278 93.5129 39.438 93.8246 39.7579C94.1239 40.0778 94.286 40.57 94.286 41.2344V53.785C94.286 54.4495 94.1364 54.9416 93.8246 55.2616C93.5129 55.5815 93.1263 55.7537 92.64 55.7537C92.1537 55.7537 91.7546 55.5938 91.4678 55.2616C91.1686 54.9293 91.0314 54.4372 91.0314 53.785V48.4326H83.9734V53.785C83.9734 54.4495 83.8238 54.9416 83.512 55.2616C83.2003 55.5815 82.8137 55.7537 82.3274 55.7537C81.841 55.7537 81.442 55.5938 81.1552 55.2616C80.8559 54.9293 80.7188 54.4372 80.7188 53.785V41.2344C80.7188 40.5823 80.8684 40.0901 81.1552 39.7702C81.442 39.438 81.841 39.278 82.3398 39.278C82.8262 39.278 83.2252 39.438 83.537 39.7579C83.7864 40.0901 83.9485 40.5823 83.9485 41.2344Z" fill="#6B6B6B" stroke="#6B6B6B" stroke-miterlimit="10"/>
<path d="M109.548 42.0465H102.178V45.9593H108.962C109.461 45.9593 109.835 46.0701 110.084 46.2916C110.334 46.513 110.458 46.8083 110.458 47.1652C110.458 47.522 110.334 47.8173 110.097 48.0511C109.86 48.2726 109.486 48.3956 108.974 48.3956H102.191V52.9237H109.81C110.321 52.9237 110.708 53.0467 110.97 53.2805C111.231 53.5143 111.356 53.8342 111.356 54.2157C111.356 54.5971 111.231 54.8924 110.97 55.1385C110.708 55.3846 110.321 55.4953 109.81 55.4953H100.919C100.208 55.4953 99.6967 55.3354 99.385 55.0277C99.0732 54.7201 98.9111 54.2157 98.9111 53.5143V41.542C98.9111 41.0745 98.986 40.7053 99.1231 40.41C99.2603 40.1147 99.4848 39.9055 99.784 39.7702C100.083 39.6348 100.457 39.5733 100.919 39.5733H109.548C110.072 39.5733 110.458 39.684 110.708 39.9178C110.957 40.1516 111.082 40.4469 111.082 40.8161C111.082 41.1975 110.957 41.4928 110.708 41.7266C110.458 41.9604 110.072 42.0465 109.548 42.0465Z" fill="#6B6B6B" stroke="#6B6B6B" stroke-miterlimit="10"/>
<path d="M128.839 50.4505C128.839 50.955 128.714 51.5087 128.465 52.0993C128.215 52.6899 127.816 53.2683 127.268 53.8343C126.719 54.4003 126.033 54.8678 125.185 55.2247C124.337 55.5815 123.352 55.7538 122.23 55.7538C121.382 55.7538 120.609 55.6799 119.91 55.52C119.212 55.36 118.576 55.1139 118.015 54.7817C117.441 54.4495 116.918 54.0065 116.444 53.4528C116.02 52.9483 115.658 52.3946 115.359 51.7794C115.059 51.1642 114.835 50.4997 114.685 49.7984C114.536 49.097 114.461 48.3465 114.461 47.559C114.461 46.2793 114.648 45.1227 115.022 44.1137C115.396 43.1047 115.945 42.2311 116.643 41.5052C117.354 40.7792 118.177 40.2378 119.125 39.8564C120.072 39.4749 121.082 39.2903 122.155 39.2903C123.464 39.2903 124.624 39.5487 125.646 40.0655C126.669 40.5823 127.455 41.2098 127.991 41.9727C128.539 42.7356 128.801 43.4493 128.801 44.1137C128.801 44.4828 128.664 44.8151 128.402 45.0858C128.14 45.3565 127.816 45.5041 127.442 45.5041C127.018 45.5041 126.706 45.4057 126.507 45.2088C126.295 45.0119 126.07 44.6797 125.809 44.1998C125.385 43.4124 124.886 42.8217 124.3 42.428C123.726 42.0342 123.015 41.8374 122.167 41.8374C120.821 41.8374 119.748 42.3419 118.963 43.3508C118.165 44.3598 117.765 45.7871 117.765 47.6451C117.765 48.8879 117.94 49.9091 118.289 50.7335C118.638 51.5579 119.137 52.1732 119.786 52.5792C120.434 52.9852 121.182 53.1944 122.055 53.1944C122.99 53.1944 123.788 52.9606 124.437 52.5054C125.085 52.0501 125.572 51.3734 125.908 50.4751C126.046 50.0568 126.22 49.7123 126.432 49.4539C126.632 49.1955 126.968 49.0601 127.417 49.0601C127.804 49.0601 128.14 49.1955 128.415 49.4662C128.702 49.7246 128.839 50.0568 128.839 50.4505Z" fill="#6B6B6B" stroke="#6B6B6B" stroke-miterlimit="10"/>
<path d="M136.197 41.2344V46.8207L142.619 40.2132C142.93 39.8932 143.192 39.6595 143.404 39.5118C143.616 39.3641 143.903 39.278 144.265 39.278C144.738 39.278 145.113 39.4134 145.399 39.6841C145.686 39.9548 145.836 40.287 145.836 40.6807C145.836 41.1483 145.586 41.6159 145.1 42.0834L141.122 45.7994L145.699 52.2716C146.023 52.7268 146.26 53.1083 146.422 53.4528C146.584 53.785 146.659 54.1172 146.659 54.4372C146.659 54.794 146.522 55.1016 146.235 55.36C145.948 55.6184 145.574 55.7537 145.088 55.7537C144.626 55.7537 144.265 55.6553 143.978 55.4707C143.691 55.2739 143.454 55.0278 143.255 54.7078C143.055 54.3879 142.88 54.0926 142.731 53.8342L138.865 47.965L136.184 50.4997V53.7973C136.184 54.4618 136.034 54.9539 135.723 55.2862C135.411 55.6061 135.024 55.766 134.538 55.766C134.264 55.766 133.989 55.6922 133.74 55.5446C133.478 55.3969 133.279 55.2 133.141 54.9539C133.042 54.7448 132.979 54.511 132.954 54.2526C132.929 53.9819 132.917 53.6004 132.917 53.0837V41.2344C132.917 40.5823 133.067 40.0901 133.353 39.7702C133.64 39.438 134.039 39.278 134.538 39.278C135.024 39.278 135.423 39.438 135.735 39.7579C136.047 40.0901 136.197 40.5823 136.197 41.2344Z" fill="#6B6B6B" stroke="#6B6B6B" stroke-miterlimit="10"/>
<path d="M153.942 41.2344V52.8253H160.576C161.1 52.8253 161.511 52.9483 161.798 53.2067C162.085 53.4651 162.222 53.7727 162.222 54.1665C162.222 54.5602 162.085 54.8801 161.798 55.1139C161.524 55.36 161.112 55.483 160.576 55.483H152.682C151.972 55.483 151.46 55.3231 151.149 55.0155C150.837 54.7079 150.675 54.2034 150.675 53.502V41.2344C150.675 40.5823 150.824 40.0901 151.124 39.7702C151.423 39.438 151.81 39.278 152.296 39.278C152.782 39.278 153.181 39.438 153.493 39.7579C153.78 40.0901 153.942 40.5823 153.942 41.2344Z" fill="#6B6B6B" stroke="#6B6B6B" stroke-miterlimit="10"/>
<path d="M165.613 53.785V41.2344C165.613 40.5823 165.763 40.0901 166.062 39.7702C166.361 39.438 166.748 39.278 167.234 39.278C167.721 39.278 168.12 39.438 168.431 39.7579C168.743 40.0778 168.893 40.57 168.893 41.2344V53.785C168.893 54.4495 168.743 54.9416 168.431 55.2616C168.132 55.5815 167.733 55.7537 167.234 55.7537C166.761 55.7537 166.374 55.5938 166.075 55.2616C165.763 54.9293 165.613 54.4495 165.613 53.785Z" fill="#6B6B6B" stroke="#6B6B6B" stroke-miterlimit="10"/>
<path d="M185.939 50.7089C185.939 51.6686 185.69 52.5423 185.178 53.3051C184.667 54.068 183.944 54.6709 182.971 55.1139C181.998 55.5446 180.851 55.766 179.529 55.766C177.933 55.766 176.624 55.4707 175.589 54.8801C174.853 54.4495 174.255 53.8834 173.793 53.1698C173.332 52.4561 173.107 51.7671 173.107 51.0903C173.107 50.6966 173.245 50.3644 173.519 50.0814C173.793 49.7984 174.142 49.663 174.566 49.663C174.916 49.663 175.202 49.7738 175.439 49.9829C175.676 50.1921 175.876 50.5243 176.05 50.955C176.25 51.4595 176.474 51.8901 176.711 52.2223C176.948 52.5546 177.285 52.8376 177.721 53.0591C178.158 53.2805 178.719 53.3913 179.43 53.3913C180.402 53.3913 181.188 53.1698 181.786 52.7268C182.398 52.2839 182.697 51.7302 182.697 51.0534C182.697 50.5243 182.535 50.0937 182.21 49.7614C181.886 49.4292 181.462 49.1831 180.939 49.0109C180.415 48.8386 179.729 48.654 178.856 48.4572C177.696 48.1865 176.724 47.8789 175.938 47.522C175.152 47.1652 174.541 46.673 174.08 46.0578C173.619 45.4426 173.394 44.6674 173.394 43.7445C173.394 42.8709 173.631 42.0834 174.117 41.4067C174.604 40.7299 175.302 40.2009 176.225 39.8317C177.148 39.4626 178.22 39.278 179.467 39.278C180.452 39.278 181.313 39.4011 182.036 39.6472C182.759 39.8932 183.358 40.2132 183.832 40.6192C184.305 41.0253 184.655 41.4436 184.879 41.8866C185.103 42.3295 185.203 42.7602 185.203 43.1785C185.203 43.56 185.066 43.9045 184.792 44.2121C184.517 44.5197 184.168 44.6797 183.757 44.6797C183.383 44.6797 183.096 44.5813 182.909 44.3967C182.709 44.2121 182.497 43.9045 182.273 43.4862C181.974 42.8832 181.624 42.4157 181.213 42.0834C180.801 41.7512 180.14 41.579 179.23 41.579C178.382 41.579 177.709 41.7635 177.185 42.1327C176.661 42.5018 176.412 42.9448 176.412 43.4492C176.412 43.7692 176.499 44.0399 176.674 44.2736C176.848 44.5074 177.098 44.7043 177.397 44.8766C177.709 45.0488 178.021 45.1719 178.332 45.2703C178.644 45.3687 179.168 45.5041 179.891 45.6887C180.801 45.8978 181.624 46.1316 182.36 46.3777C183.096 46.6361 183.732 46.9437 184.243 47.3005C184.767 47.6574 185.166 48.1249 185.453 48.6787C185.789 49.22 185.939 49.8968 185.939 50.7089Z" fill="#6B6B6B" stroke="#6B6B6B" stroke-miterlimit="10"/>
<path d="M200.329 42.2187H196.763V53.7973C196.763 54.4617 196.613 54.9539 196.314 55.2861C196.014 55.606 195.628 55.766 195.141 55.766C194.655 55.766 194.256 55.606 193.957 55.2738C193.658 54.9416 193.495 54.4494 193.495 53.7973V42.2187H189.929C189.368 42.2187 188.956 42.0957 188.682 41.8496C188.408 41.6035 188.271 41.2836 188.271 40.8899C188.271 40.4838 188.408 40.1516 188.695 39.9178C188.981 39.684 189.38 39.561 189.929 39.561H200.329C200.89 39.561 201.314 39.684 201.588 39.9301C201.863 40.1762 202 40.4961 202 40.9022C202 41.2959 201.863 41.6158 201.576 41.8619C201.289 42.108 200.89 42.2187 200.329 42.2187Z" fill="#6B6B6B" stroke="#6B6B6B" stroke-miterlimit="10"/>
<path d="M46.2506 26.1738C46.2506 29.4467 46.2506 32.7197 46.2506 35.9927C46.2506 39.5118 46.2506 43.0309 46.2506 46.5623C46.2506 47.6328 46.313 48.7402 46.1883 49.8107C46.2257 49.5154 46.2756 49.2201 46.313 48.9248C46.2132 49.6384 46.0137 50.3275 45.7393 50.9919C45.8516 50.7212 45.9763 50.4628 46.0885 50.1921C45.8516 50.7212 45.5772 51.2134 45.2406 51.6933C45.1533 51.8163 45.066 51.9271 44.9787 52.0378C45.5648 51.1765 45.3403 51.5948 45.1533 51.804C44.9537 52.0255 44.7542 52.2347 44.5298 52.4316C44.4549 52.4931 43.9437 53.0345 43.8439 53.0099C43.9063 53.0345 44.6669 52.4316 44.0684 52.8376C43.9437 52.9237 43.819 53.0099 43.6818 53.0837C43.1581 53.4159 42.5969 53.6866 42.0233 53.9204C42.2976 53.8097 42.5845 53.6989 42.8588 53.5882C41.9485 53.945 41.0132 54.1788 40.0406 54.3141C40.3523 54.2772 40.6641 54.2403 40.9758 54.1911C39.9533 54.3141 38.9183 54.2895 37.8958 54.2895C36.2996 54.2895 34.7159 54.2895 33.1198 54.2895C29.4411 54.2895 25.75 54.2895 22.0714 54.2895C20.8992 54.2895 19.7021 54.3387 18.53 54.1911C18.8417 54.228 19.1535 54.2649 19.4652 54.3141C18.4925 54.1788 17.5573 53.945 16.647 53.5882C16.9213 53.6989 17.2081 53.8097 17.4825 53.9204C16.9089 53.6866 16.3477 53.4036 15.824 53.0837C15.6993 52.9976 15.5621 52.9237 15.4374 52.8376C15.188 52.6653 14.9012 52.3208 15.6619 53.0099C15.4374 52.813 15.2005 52.6407 14.976 52.4316C14.764 52.2347 14.552 52.0255 14.3525 51.804C14.1655 51.5948 13.9285 51.1519 14.5271 52.0378C14.4398 51.9148 14.3525 51.804 14.2652 51.6933C13.9285 51.2257 13.6542 50.7212 13.4173 50.1921C13.5295 50.4628 13.6542 50.7212 13.7664 50.9919C13.4796 50.3275 13.2926 49.6384 13.1928 48.9248C13.2302 49.2201 13.2801 49.5154 13.3175 49.8107C13.118 48.2357 13.2552 46.5869 13.2552 45.0119C13.2552 43.4985 13.2552 41.9727 13.2552 40.4593C13.2552 38.712 11.6466 37.0386 9.75112 37.1248C7.85569 37.2109 6.24707 38.589 6.24707 40.4593C6.24707 42.6987 6.24707 44.9258 6.24707 47.1652C6.24707 48.4203 6.25954 49.6015 6.45906 50.8443C6.84563 53.1944 8.19238 55.4462 9.96311 57.1196C12.8187 59.8143 16.6595 60.9955 20.6124 60.9955C22.9693 60.9955 25.3136 60.9955 27.6704 60.9955C30.6008 60.9955 33.5313 60.9955 36.4617 60.9955C38.7811 60.9955 41.0881 61.0816 43.3576 60.5033C45.8142 59.8635 48.1959 58.5592 49.9043 56.7627C51.8496 54.7202 52.9594 52.2716 53.2213 49.54C53.3834 47.842 53.2587 46.0824 53.2587 44.3844C53.2587 39.6226 53.2587 34.873 53.2587 30.1112C53.2587 28.8069 53.2587 27.5026 53.2587 26.1984C53.2587 24.4511 51.6501 22.7777 49.7547 22.8638C47.8592 22.9131 46.2506 24.3035 46.2506 26.1738Z" fill="#6B6B6B"/>
<path d="M14.2399 20.8335C14.4644 20.5875 14.7013 20.3414 14.9507 20.1076C15.0505 20.0091 15.1627 19.923 15.2749 19.8369C15.5368 19.6031 14.5392 20.366 15.1378 19.9476C15.674 19.5662 16.26 19.2586 16.8586 19.0002C16.5843 19.1109 16.3224 19.2217 16.0481 19.3324C16.7588 19.0494 17.4821 18.8525 18.2428 18.7418C17.9435 18.7787 17.6442 18.8156 17.3449 18.8648C18.8538 18.668 20.4375 18.7787 21.9588 18.7787C24.0912 18.7787 26.236 18.7787 28.3684 18.7787C28.8796 18.7787 29.3909 18.7787 29.9146 18.7787C31.6854 18.7787 33.3813 17.2406 33.294 15.4442C33.2067 13.6354 31.8101 12.1097 29.9146 12.1097C27.9693 12.1097 26.0365 12.1097 24.0912 12.1097C22.0835 12.1097 20.0634 12.0112 18.0557 12.122C14.7886 12.3188 11.6462 13.6846 9.45146 16.1086C8.27929 17.4129 8.05483 19.5662 9.45146 20.8335C10.7483 22.0025 12.9929 22.2239 14.2399 20.8335Z" fill="#6B6B6B"/>
<path d="M31.4375 43.2893C31.4749 42.994 31.45 43.2032 31.4874 42.9079C31.3876 43.5354 31.3876 43.5477 31.4998 42.9694C31.5996 42.551 31.6744 42.145 31.7742 41.7266C31.9114 41.1975 32.061 40.6684 32.2231 40.1517C32.3353 39.8071 32.6471 39.0073 32.3229 39.8071C32.9962 38.1091 33.8317 36.448 34.7794 34.7992C36.9741 30.9602 39.1938 27.6134 41.9496 24.0205C44.1818 21.1166 46.5885 18.2497 49.3568 15.5673C49.8805 15.0628 50.4043 14.5706 50.9654 14.0784C51.2148 13.8569 51.4767 13.6478 51.7136 13.4386C52.3122 12.8972 51.0402 13.9185 51.8383 13.3402C52.599 12.7865 53.609 12.0482 54.1702 11.433C57.1131 8.88593 55.7165 -0.760792 51.3395 1.28175C48.7832 2.47529 46.788 4.46862 45.0173 6.17894C41.9621 9.13202 39.331 12.2943 36.9243 15.5058C30.7392 23.7375 25.5018 32.2276 24.3546 41.4313C24.18 42.7848 24.5042 44.409 25.1277 45.6641C25.5018 46.4269 26.2749 47.682 27.4596 48.0388C30.4898 48.9248 31.3003 44.3844 31.4375 43.2893Z" fill="#6B6B6B"/>
<path d="M5.12502 32.4613C9.63914 34.8115 14.3652 36.6079 18.1187 39.4626C19.7647 40.7176 21.2611 42.0465 22.6827 43.4246C23.0443 43.7815 23.0568 43.7938 22.7076 43.4492C22.8822 43.6338 23.0568 43.8184 23.2314 44.0029C23.4932 44.286 23.7426 44.5567 23.992 44.8397C24.6405 45.5779 25.264 46.3285 25.875 47.0791C26.3488 47.6697 27.2841 48.6048 28.5061 48.5064C29.6908 48.408 30.2021 47.3498 30.5263 46.6853C31.686 44.286 31.7857 41.0376 30.0399 38.8597C24.229 31.6246 16.4353 25.6692 5.9231 21.6334C3.07995 20.5383 2.06989 24.771 2.00754 25.8415C1.92025 27.8841 2.56869 31.0094 5.12502 32.4613Z" fill="#6B6B6B"/>
</g>
<defs>
<filter id="filter0_d_167_428" x="0" y="0" width="204.5" height="64" filterUnits="userSpaceOnUse" color-interpolation-filters="sRGB">
<feFlood flood-opacity="0" result="BackgroundImageFix"/>
<feColorMatrix in="SourceAlpha" type="matrix" values="0 0 0 0 0 0 0 0 0 0 0 0 0 0 0 0 0 0 127 0" result="hardAlpha"/>
<feOffset dy="1"/>
<feGaussianBlur stdDeviation="1"/>
<feComposite in2="hardAlpha" operator="out"/>
<feColorMatrix type="matrix" values="0 0 0 0 0 0 0 0 0 0 0 0 0 0 0 0 0 0 0.25 0"/>
<feBlend mode="normal" in2="BackgroundImageFix" result="effect1_dropShadow_167_428"/>
<feBlend mode="normal" in="SourceGraphic" in2="effect1_dropShadow_167_428" result="shape"/>
</filter>
</defs>
</svg>
