<svg width="20" height="21" viewBox="0 0 20 21" fill="none" xmlns="http://www.w3.org/2000/svg">
<path d="M19.9546 6.82007C19.785 6.22047 19.2695 5.82126 18.6449 5.81343C18.2692 5.80874 17.8935 5.81239 17.5 5.81239V1.99196C17.5 1.2024 17.1603 0.751008 16.3974 0.522961C16.386 0.51983 16.3771 0.507828 16.3672 0.5H3.63406C3.61162 0.510959 3.59023 0.527136 3.56622 0.533398C2.89153 0.713957 2.50278 1.21493 2.50174 1.9142C2.50017 3.13115 2.50122 4.34861 2.50122 5.56608V5.81239C2.4219 5.81239 2.34728 5.81082 2.27267 5.81239C1.88288 5.82126 1.48682 5.79099 1.10486 5.8484C0.45991 5.94598 0.00541607 6.50123 0.00385065 7.1504C-0.000845612 9.59108 -0.00188923 12.0323 0.00437245 14.4735C0.00645968 15.2176 0.604972 15.8052 1.35481 15.8099C2.38955 15.8172 3.42481 15.812 4.45956 15.812H4.68863V16.0395C4.68863 17.0483 4.68759 18.0575 4.68915 19.0662C4.6902 19.9226 5.26627 20.4987 6.12308 20.4992C8.70706 20.5003 11.291 20.5003 13.8756 20.4992C14.7334 20.4987 15.311 19.9236 15.3121 19.0688C15.3137 18.0601 15.3126 17.0509 15.3126 16.0421V15.812H18.4878C19.2992 15.812 19.7448 15.4817 19.976 14.7093C19.9797 14.6979 19.9917 14.689 20 14.6791V6.9448C19.9849 6.90357 19.9666 6.86287 19.9546 6.82007ZM13.8182 19.253C11.2728 19.2478 8.72793 19.2478 6.18256 19.253C5.99732 19.2536 5.93418 19.2009 5.9347 19.0099C5.94097 16.9788 5.94044 14.9478 5.93523 12.9168C5.9347 12.7342 5.9968 12.683 6.17317 12.6841C7.45577 12.6898 8.73785 12.6872 10.0205 12.6872H13.8088C14.0592 12.6872 14.0629 12.6903 14.0629 12.9366C14.0629 14.9614 14.0608 16.9856 14.0665 19.0099C14.0671 19.2019 14.0029 19.253 13.8182 19.253ZM4.01498 5.81239C3.75251 5.81239 3.75147 5.81082 3.75147 5.55303C3.75094 4.36792 3.75094 3.18333 3.75147 1.99874C3.75147 1.75295 3.7546 1.74982 4.00611 1.74982H15.9764C16.2498 1.74982 16.2503 1.75034 16.2503 2.01857C16.2503 3.1969 16.2503 4.37523 16.2498 5.55355C16.2498 5.81082 16.2487 5.81239 15.9852 5.81239H4.01498ZM16.8655 9.24874C16.7095 9.2524 16.5535 9.24927 16.3974 9.24927C16.2409 9.24927 16.0849 9.25396 15.9289 9.24822C15.5793 9.23622 15.311 8.96016 15.3131 8.61992C15.3157 8.27863 15.5834 8.00832 15.9367 8.00101C16.2493 7.99527 16.5613 7.99527 16.8739 8.00101C17.2261 8.0078 17.4964 8.27916 17.499 8.61888C17.5021 8.96643 17.2287 9.23987 16.8655 9.24874Z" fill="#6B6B6B"/>
</svg>
