<svg width="34" height="34" viewBox="0 0 34 34" fill="none" xmlns="http://www.w3.org/2000/svg">
<g filter="url(#filter0_di_167_103)">
<path d="M19.9519 6.7002C21.2805 8.32237 22.6063 9.94602 23.932 11.5726C24.8518 12.7019 25.7715 13.8312 26.6868 14.965C27.0013 15.3557 27.3172 15.7465 27.6287 16.1402C27.7262 16.263 27.8251 16.3844 27.9196 16.5102C27.9476 16.5472 27.9757 16.5842 28.0037 16.6227C28.1765 16.855 28.1381 17.0534 27.9978 16.6389C27.8856 16.0839 27.7734 15.5274 27.6597 14.9724C27.6656 14.8347 27.673 14.6971 27.6789 14.5594C27.8531 14.0666 28.0273 13.5737 28.2016 13.0823C27.9476 13.6063 27.5771 14.0858 27.2552 14.5683C26.6337 15.4978 26.0136 16.4273 25.3921 17.3568C23.9409 19.5295 22.4897 21.7023 21.0384 23.8751C20.693 24.3931 20.346 24.9111 20.0006 25.4277C19.1546 26.6946 19.1812 28.9014 20.1157 30.1195C21.0251 31.3051 22.345 31.3065 23.188 30.044C25.4408 26.6724 27.6922 23.3008 29.9451 19.9292C30.3245 19.3623 30.7069 18.7969 31.0819 18.2271C32.384 16.2497 32.2895 13.6403 30.8752 11.7443C29.5982 10.0319 28.1897 8.40378 26.8404 6.74757C25.5324 5.14168 24.2214 3.53727 22.9089 1.93435C22.5118 1.44888 22.0305 0.984135 21.3485 1.00042C20.7269 1.01522 20.1364 1.49476 19.8352 2.00983C19.0926 3.28862 18.9524 5.48062 19.9519 6.7002Z" fill="#6B6B6B"/>
<path d="M6.06972 28.3552C6.32365 27.3858 6.56429 26.4089 6.89647 25.4617C7.06329 24.9866 7.24783 24.5174 7.4309 24.0467C7.55343 23.733 7.67449 23.4177 7.80293 23.1069C7.88413 22.9086 7.96828 22.7102 8.05538 22.5134C7.8856 22.8923 8.01847 22.5903 8.1292 22.3876C8.28716 22.0975 8.4909 21.837 8.65182 21.5513C8.84374 21.2109 8.38608 21.8222 8.65182 21.538C8.75516 21.427 8.85407 21.3101 8.96037 21.2005C9.19806 20.9563 9.45051 20.7269 9.71625 20.5138C9.83435 20.4191 9.95541 20.3288 10.0765 20.24C9.80335 20.4383 10.0986 20.2311 10.2285 20.1541C10.7792 19.8255 11.3609 19.5547 11.9603 19.3327C12.2422 19.2291 12.5286 19.1462 12.815 19.0574C13.3362 18.8961 12.4179 19.0944 12.9464 19.0233C16.3346 18.5719 19.8409 18.7421 23.2482 18.7954C24.8663 18.8206 26.4843 18.8561 28.1024 18.9079C29.6363 18.9567 30.2578 16.7218 30.1943 15.5363C30.1235 14.2234 29.5374 12.323 27.94 12.2727C24.4057 12.1587 20.864 12.0921 17.3267 12.1395C15.812 12.1602 14.2456 12.1365 12.7457 12.3941C9.81959 12.8958 7.19321 14.5165 5.46148 16.932C4.44724 18.3469 3.85081 20.0757 3.24404 21.6964C2.82772 22.8064 2.53245 23.949 2.23276 25.0946C1.8622 26.5111 1.78986 28.6217 3.12298 29.6148C4.30404 30.4954 5.71245 29.7184 6.06972 28.3552Z" fill="#6B6B6B"/>
</g>
<defs>
<filter id="filter0_di_167_103" x="0" y="0" width="34" height="34" filterUnits="userSpaceOnUse" color-interpolation-filters="sRGB">
<feFlood flood-opacity="0" result="BackgroundImageFix"/>
<feColorMatrix in="SourceAlpha" type="matrix" values="0 0 0 0 0 0 0 0 0 0 0 0 0 0 0 0 0 0 127 0" result="hardAlpha"/>
<feOffset dy="1"/>
<feGaussianBlur stdDeviation="1"/>
<feComposite in2="hardAlpha" operator="out"/>
<feColorMatrix type="matrix" values="0 0 0 0 0 0 0 0 0 0 0 0 0 0 0 0 0 0 0.25 0"/>
<feBlend mode="normal" in2="BackgroundImageFix" result="effect1_dropShadow_167_103"/>
<feBlend mode="normal" in="SourceGraphic" in2="effect1_dropShadow_167_103" result="shape"/>
<feColorMatrix in="SourceAlpha" type="matrix" values="0 0 0 0 0 0 0 0 0 0 0 0 0 0 0 0 0 0 127 0" result="hardAlpha"/>
<feOffset dy="2"/>
<feGaussianBlur stdDeviation="1"/>
<feComposite in2="hardAlpha" operator="arithmetic" k2="-1" k3="1"/>
<feColorMatrix type="matrix" values="0 0 0 0 0 0 0 0 0 0 0 0 0 0 0 0 0 0 0.25 0"/>
<feBlend mode="normal" in2="shape" result="effect2_innerShadow_167_103"/>
</filter>
</defs>
</svg>
